<svg width="28" height="26" viewBox="0 0 28 26" fill="none" xmlns="http://www.w3.org/2000/svg">
<path d="M0 0.928571C0 0.415736 0.417867 0 0.933333 0H3.73333C4.16161 0 4.53493 0.28999 4.6388 0.70336L5.39539 3.71429H27.0667C27.3541 3.71429 27.6254 3.84602 27.8023 4.0714C27.9792 4.29678 28.0418 4.59067 27.9721 4.86807L25.1721 16.0109C25.0683 16.4243 24.6949 16.7143 24.2667 16.7143H7.46666C7.03839 16.7143 6.66507 16.4243 6.5612 16.0109L3.00461 1.85714H0.933333C0.417867 1.85714 0 1.44141 0 0.928571ZM5.86206 5.57143L8.19539 14.8571H23.5379L25.8713 5.57143H5.86206ZM9.33333 20.4286C8.3024 20.4286 7.46666 21.26 7.46666 22.2857C7.46666 23.3114 8.3024 24.1429 9.33333 24.1429C10.3643 24.1429 11.2 23.3114 11.2 22.2857C11.2 21.26 10.3643 20.4286 9.33333 20.4286ZM5.6 22.2857C5.6 20.2344 7.27147 18.5714 9.33333 18.5714C11.3952 18.5714 13.0667 20.2344 13.0667 22.2857C13.0667 24.3371 11.3952 26 9.33333 26C7.27147 26 5.6 24.3371 5.6 22.2857ZM22.4 20.4286C21.3691 20.4286 20.5333 21.26 20.5333 22.2857C20.5333 23.3114 21.3691 24.1429 22.4 24.1429C23.4309 24.1429 24.2667 23.3114 24.2667 22.2857C24.2667 21.26 23.4309 20.4286 22.4 20.4286ZM18.6667 22.2857C18.6667 20.2344 20.3381 18.5714 22.4 18.5714C24.4619 18.5714 26.1333 20.2344 26.1333 22.2857C26.1333 24.3371 24.4619 26 22.4 26C20.3381 26 18.6667 24.3371 18.6667 22.2857Z" fill="#2F3C16"/>
</svg>
